<?xml version="1.0" standalone="no"?>
<!DOCTYPE svg PUBLIC "-//W3C//DTD SVG 20010904//EN"
 "http://www.w3.org/TR/2001/REC-SVG-20010904/DTD/svg10.dtd">
<svg version="1.0" xmlns="http://www.w3.org/2000/svg"
 width="424.000000pt" height="283.000000pt" viewBox="0 0 424.000000 283.000000"
 preserveAspectRatio="xMidYMid meet">

<g transform="translate(0.000000,283.000000) scale(0.100000,-0.100000)"
fill="#000000" stroke="none">
<path d="M2090 1764 c-11 -27 5 -114 21 -114 22 0 100 46 105 62 7 24 -14 51
-36 45 -9 -2 -22 4 -29 14 -17 28 -50 24 -61 -7z"/>
<path d="M2075 525 l-28 -105 -44 0 -44 0 15 28 c19 37 32 117 17 108 -6 -4
-11 -13 -11 -19 0 -7 -11 -36 -25 -64 -18 -40 -29 -53 -46 -53 -17 0 -20 4
-15 23 19 64 36 159 30 169 -16 26 -111 -344 -98 -384 6 -21 50 -25 57 -5 4
10 7 9 18 0 34 -33 90 3 104 68 8 34 -1 53 -10 23 -38 -119 -83 -101 -56 22
11 49 14 52 54 62 23 6 43 9 45 7 2 -2 -4 -40 -13 -85 -9 -45 -14 -88 -11 -96
7 -17 26 -19 26 -1 0 27 70 156 91 167 22 12 22 12 14 -41 -15 -95 -12 -143 8
-147 14 -3 17 1 12 21 -4 14 1 53 11 86 29 106 -9 143 -83 79 -26 -23 -35 -27
-30 -14 14 36 57 215 57 235 0 50 -19 13 -45 -84z m-159 -152 c-4 -16 -9 -49
-13 -75 -3 -27 -13 -54 -24 -64 -18 -16 -19 -16 -19 24 0 23 5 64 11 92 9 40
15 50 31 50 17 0 19 -4 14 -27z"/>
<path d="M2686 482 c-41 -143 -58 -173 -123 -213 -49 -30 -89 -39 -124 -27
-31 11 -59 52 -59 88 0 50 60 129 122 161 49 25 82 24 101 -3 11 -17 16 -19
16 -8 1 9 -6 26 -15 39 -15 20 -23 23 -61 18 -140 -15 -243 -209 -159 -296 50
-52 133 -37 222 41 l36 32 -2 -30 c-5 -67 -2 -76 27 -72 14 2 29 10 31 18 5
13 3 13 -13 0 -17 -14 -18 -12 -13 48 4 34 21 121 40 192 22 85 29 133 23 139
-7 7 -23 -37 -49 -127z"/>
<path d="M2921 515 c-7 -47 -24 -126 -36 -177 -13 -50 -22 -95 -19 -100 12
-18 22 -5 33 39 19 78 32 103 63 119 60 31 68 -20 17 -102 -24 -39 -73 -74
-103 -74 -13 0 -17 -3 -10 -10 15 -15 84 6 115 36 52 49 76 133 47 162 -15 15
-53 16 -78 2 -17 -9 -18 -5 -13 90 3 55 4 100 1 100 -3 0 -10 -38 -17 -85z"/>
<path d="M1412 473 c-18 -45 -32 -86 -32 -92 0 -11 -35 -21 -78 -21 -39 0 -40
21 -1 30 24 6 24 6 2 12 l-22 6 20 52 c11 29 18 60 17 69 -2 9 -16 -16 -32
-55 -26 -65 -31 -72 -64 -80 -47 -12 -52 -32 -13 -47 21 -8 30 -16 26 -26 -11
-29 -17 -100 -11 -125 10 -41 21 -30 18 17 -5 60 14 127 36 127 9 0 34 3 55 6
l37 7 -5 -54 c-4 -36 -1 -63 7 -79 24 -45 89 -34 87 14 0 21 0 21 -9 -2 -11
-25 -45 -30 -54 -6 -10 25 -7 93 4 115 8 14 22 19 53 21 l42 1 -47 6 -46 6 24
75 c34 106 24 121 -14 23z m-162 -98 c0 -16 -35 -21 -45 -6 -4 8 9 15 38 20 4
0 7 -6 7 -14z"/>
<path d="M1526 386 c-46 -45 -66 -108 -45 -145 24 -43 83 -41 138 4 l30 26 3
-28 c4 -38 33 -41 69 -7 28 27 29 27 29 6 0 -12 9 -26 19 -32 35 -18 42 -11
19 20 l-22 30 23 53 c34 78 35 84 12 96 -16 9 -27 8 -50 -3 -29 -15 -101 -92
-101 -108 0 -19 -84 -68 -117 -68 -31 0 -33 2 -33 35 0 33 2 35 25 29 27 -7
66 14 97 50 22 27 22 39 0 59 -28 26 -57 20 -96 -17z m84 0 c0 -28 -13 -47
-41 -61 -58 -30 -66 -9 -17 42 34 35 58 43 58 19z m180 -1 c0 -39 -88 -155
-117 -155 -19 0 -16 18 12 66 30 51 105 114 105 89z"/>
<path d="M2752 408 c-18 -23 -44 -115 -40 -148 4 -45 30 -60 67 -39 28 16 29
16 40 -7 15 -33 33 -31 25 3 -9 34 -9 31 0 121 6 59 5 72 -7 72 -10 0 -17 -16
-21 -48 -7 -51 -44 -135 -61 -136 -17 -2 -17 65 0 127 17 60 16 77 -3 55z"/>
</g>
</svg>
